<svg width="110" height="110" viewBox="0 0 110 110" fill="none" xmlns="http://www.w3.org/2000/svg">
<g filter="url(#filter0_d_14_5)">
<circle cx="55" cy="54" r="53" fill="#F54329"/>
</g>
<path d="M25.261 59.3866L34.4541 33.4263L41.2166 35.821C42.3276 36.2145 43.3443 36.6707 44.2667 37.1897C45.2104 37.7162 45.9798 38.3614 46.575 39.1252C47.1777 39.8677 47.5338 40.7632 47.6434 41.812C47.7819 42.8469 47.5939 44.0908 47.0793 45.5437C46.7086 46.5907 46.2343 47.4206 45.6566 48.0336C45.1078 48.6328 44.4693 49.0439 43.741 49.2669C43.0342 49.4975 42.259 49.5476 41.4155 49.4173C42.3743 49.9011 43.101 50.5311 43.5956 51.3074C44.0977 52.0623 44.3646 52.9383 44.3962 53.9354C44.4493 54.9401 44.2563 56.062 43.8175 57.3013C43.3408 58.6474 42.7468 59.7475 42.0356 60.6018C41.3532 61.4422 40.5711 62.055 39.6894 62.44C38.8076 62.8251 37.8223 62.9932 36.7335 62.9443C35.6661 62.9029 34.5021 62.659 33.2414 62.2126L25.261 59.3866ZM32.4166 57.412L33.6345 57.8432C34.8951 58.2896 35.874 58.2756 36.571 57.801C37.2894 57.3341 37.8681 56.481 38.3069 55.2417C38.655 54.2588 38.8243 53.4411 38.8149 52.7886C38.8056 52.136 38.6006 51.5945 38.1999 51.1641C37.8069 50.7123 37.1937 50.3389 36.3604 50.0438L35.1745 49.6238L32.4166 57.412ZM36.5138 45.842L37.6355 46.2392C38.5115 46.5494 39.2193 46.6558 39.7588 46.5583C40.3058 46.4394 40.745 46.15 41.0761 45.6902C41.4286 45.2379 41.7335 44.6486 41.9908 43.9221C42.2329 43.2384 42.3052 42.6268 42.2077 42.0873C42.1391 41.534 41.9007 41.0528 41.4925 40.6438C41.1057 40.2423 40.5491 39.9129 39.8226 39.6556L38.829 39.3038L36.5138 45.842ZM51.4663 69.0992C49.4792 68.3956 48.0329 67.5227 47.1275 66.4807C46.251 65.4249 45.8078 64.1979 45.7979 62.7998C45.7957 61.3802 46.1161 59.7624 46.7592 57.9463L53.1035 40.0304L58.7764 42.0393L52.1256 60.8204C51.9364 61.3546 51.79 61.9039 51.6863 62.4683C51.5826 63.0328 51.6091 63.5351 51.7658 63.9753C51.9439 64.4231 52.3321 64.7529 52.9303 64.9648C53.55 65.1842 54.0592 65.1722 54.458 64.9287C54.8569 64.6852 55.1829 64.3077 55.4362 63.7962C55.7108 63.2923 55.9427 62.7733 56.1318 62.2391L62.7826 43.4579L68.4875 45.4781L62.1431 63.394C61.5 65.2101 60.7202 66.6653 59.8037 67.7595C58.9162 68.8398 57.7996 69.5145 56.454 69.7834C55.1159 70.0309 53.4534 69.8029 51.4663 69.0992ZM66.2137 73.8887L69.9703 63.2802L70.471 46.1806L75.8875 48.0986L75.4498 57.1773L80.5667 49.7556L85.7588 51.5942L75.4829 65.2323L71.7262 75.8408L66.2137 73.8887Z" fill="white"/>
<defs>
<filter id="filter0_d_14_5" x="0" y="0" width="110" height="110" filterUnits="userSpaceOnUse" color-interpolation-filters="sRGB">
<feFlood flood-opacity="0" result="BackgroundImageFix"/>
<feColorMatrix in="SourceAlpha" type="matrix" values="0 0 0 0 0 0 0 0 0 0 0 0 0 0 0 0 0 0 127 0" result="hardAlpha"/>
<feOffset dy="1"/>
<feGaussianBlur stdDeviation="1"/>
<feComposite in2="hardAlpha" operator="out"/>
<feColorMatrix type="matrix" values="0 0 0 0 0 0 0 0 0 0 0 0 0 0 0 0 0 0 0.25 0"/>
<feBlend mode="normal" in2="BackgroundImageFix" result="effect1_dropShadow_14_5"/>
<feBlend mode="normal" in="SourceGraphic" in2="effect1_dropShadow_14_5" result="shape"/>
</filter>
</defs>
</svg>
