<svg width="29" height="29" viewBox="0 0 29 29" fill="none" xmlns="http://www.w3.org/2000/svg">
<g clip-path="url(#clip0_4_8)">
<path d="M3.95634 9.7316C3.46529 9.7316 3.04865 9.90284 2.70616 10.2453C2.36368 10.5878 2.19238 10.9988 2.19238 11.4784V18.8432C2.19238 19.3349 2.36363 19.7511 2.70616 20.0937C3.04865 20.4362 3.46529 20.6074 3.95634 20.6074C4.44704 20.6074 4.86115 20.4362 5.19833 20.0937C5.53484 19.7512 5.70356 19.3349 5.70356 18.8432V11.4784C5.70356 10.9987 5.53231 10.5878 5.18978 10.2453C4.84724 9.90284 4.43601 9.7316 3.95634 9.7316Z" fill="#E1E3E9"/>
<path d="M18.138 3.12028L19.3541 0.876965C19.4339 0.728448 19.4055 0.614561 19.2686 0.534479C19.1201 0.465425 19.0059 0.500416 18.9261 0.636977L17.6931 2.89823C16.6081 2.41851 15.4605 2.17821 14.2503 2.17821C13.0399 2.17821 11.8923 2.41856 10.8076 2.89823L9.57452 0.636977C9.49439 0.500416 9.38024 0.465735 9.23204 0.534479C9.09486 0.614922 9.06646 0.728448 9.1466 0.876965L10.3627 3.12028C9.12959 3.74913 8.14748 4.62493 7.41675 5.74958C6.68602 6.87484 6.3205 8.10451 6.3205 9.44075H22.163C22.163 8.10482 21.7974 6.8751 21.0667 5.74958C20.3359 4.62493 19.3595 3.74913 18.138 3.12028ZM11.1073 6.38322C10.9757 6.51504 10.8187 6.58064 10.6361 6.58064C10.4532 6.58064 10.2993 6.51504 10.1737 6.38322C10.0482 6.25202 9.98544 6.09557 9.98544 5.91237C9.98544 5.72979 10.0482 5.57303 10.1737 5.44152C10.2993 5.31031 10.4535 5.24471 10.6361 5.24471C10.8187 5.24471 10.9757 5.31031 11.1073 5.44152C11.2385 5.57334 11.3044 5.72979 11.3044 5.91237C11.304 6.09526 11.2381 6.25202 11.1073 6.38322ZM18.3263 6.38322C18.2005 6.51504 18.0462 6.58064 17.864 6.58064C17.681 6.58064 17.5239 6.51504 17.3927 6.38322C17.2612 6.25202 17.1956 6.09557 17.1956 5.91237C17.1956 5.72979 17.2612 5.57303 17.3927 5.44152C17.5239 5.31031 17.681 5.24471 17.864 5.24471C18.0465 5.24471 18.2004 5.31031 18.3263 5.44152C18.4519 5.57334 18.5146 5.72979 18.5146 5.91237C18.5146 6.09526 18.4518 6.25202 18.3263 6.38322Z" fill="#E1E3E9"/>
<path d="M6.38855 21.4637C6.38855 21.9894 6.57113 22.4345 6.93634 22.7997C7.30186 23.1649 7.7469 23.3475 8.27227 23.3475H9.53977L9.55713 27.2358C9.55713 27.7268 9.72838 28.1437 10.0709 28.4863C10.4133 28.8288 10.8246 29.0001 11.304 29.0001C11.7947 29.0001 12.2116 28.8288 12.5542 28.4863C12.8967 28.1437 13.0679 27.7268 13.0679 27.2358V23.3478H15.4314V27.2358C15.4314 27.7268 15.6026 28.1437 15.9452 28.4863C16.2877 28.8288 16.7042 29.0001 17.1953 29.0001C17.6861 29.0001 18.103 28.8288 18.4455 28.4863C18.7881 28.1437 18.9593 27.7268 18.9593 27.2358V23.3478H20.2439C20.7576 23.3478 21.1969 23.1652 21.5628 22.8C21.9279 22.4348 22.1106 21.9897 22.1106 21.464V10.0567H6.38855V21.4637Z" fill="#E1E3E9"/>
<path d="M24.5437 9.7316C24.0639 9.7316 23.653 9.90032 23.3105 10.2368C22.968 10.5739 22.7968 10.9881 22.7968 11.4784V18.8432C22.7968 19.3349 22.9679 19.7511 23.3105 20.0937C23.653 20.4362 24.0642 20.6074 24.5437 20.6074C25.0344 20.6074 25.4513 20.4362 25.7938 20.0937C26.1364 19.7511 26.3076 19.3349 26.3076 18.8432V11.4784C26.3076 10.988 26.1364 10.5739 25.7938 10.2368C25.4513 9.90032 25.0344 9.7316 24.5437 9.7316Z" fill="#E1E3E9"/>
</g>
<defs>
<clipPath id="clip0_4_8">
<rect width="28.5" height="28.5" fill="white" transform="translate(0 0.5)"/>
</clipPath>
</defs>
</svg>
